<?xml version="1.0" encoding="UTF-8" standalone="no"?>
<!-- Created with Inkscape (http://www.inkscape.org/) -->

<svg
   xmlns:dc="http://purl.org/dc/elements/1.1/"
   xmlns:cc="http://creativecommons.org/ns#"
   xmlns:rdf="http://www.w3.org/1999/02/22-rdf-syntax-ns#"
   xmlns:svg="http://www.w3.org/2000/svg"
   xmlns="http://www.w3.org/2000/svg"
   version="1.1"
   width="75"
   height="100"
   id="svg2987">
  <defs
     id="defs2989" />
  <metadata
     id="metadata2992">
    <rdf:RDF>
      <cc:Work
         rdf:about="">
        <dc:format>image/svg+xml</dc:format>
        <dc:type
           rdf:resource="http://purl.org/dc/dcmitype/StillImage" />
        <dc:title></dc:title>
      </cc:Work>
    </rdf:RDF>
  </metadata>
  <g
     transform="translate(0,-952.36218)"
     id="layer1">
    <path
       d="m 37.486535,952.36218 c -4.766547,0 -8.758923,2.148 -12.010772,6.426 -3.251737,4.2781 -4.874267,9.3683 -4.874326,15.2707 5.9e-5,4.8195 1.386949,9.8556 4.174147,15.1624 -2.414521,-2.6968 -4.821958,-4.2959 -9.398565,-4.2959 C 6.422296,984.92538 0,994.77928 0,1007.0914 c -1.699997e-5,13.0555 7.107499,22.9964 16.588869,22.9964 9.492883,0 16.616247,-8.6803 20.116696,-19.2418 -0.161536,8.61 -1.137755,15.4242 -2.935368,20.4332 -1.797518,5.0089 -4.551106,9.1516 -8.267504,12.4548 -2.504428,2.2202 -7.015196,4.1697 -13.518851,5.8484 l -0.48474,2.7798 25.987433,0 26.014363,0 -0.48474,-2.7798 c -6.503646,-1.6787 -11.014423,-3.6282 -13.518851,-5.8484 -3.716389,-3.3032 -6.469969,-7.4459 -8.267504,-12.4548 -1.797614,-5.009 -2.77384,-11.8232 -2.935368,-20.4332 3.500449,10.5615 10.623804,19.2418 20.116696,19.2418 9.481379,0 16.588886,-9.9409 16.588869,-22.9964 0,-12.31212 -6.422296,-22.16602 -15.377019,-22.16602 -4.576607,0 -6.984044,1.5991 -9.398564,4.2959 2.787197,-5.3068 4.174104,-10.3429 4.174147,-15.1624 -5.2e-5,-5.9024 -1.62259,-10.9926 -4.874327,-15.2707 -3.251849,-4.278 -7.271147,-6.426 -12.037702,-6.426 z"
       id="path1937"
       style="font-size:144px;font-style:normal;font-weight:normal;fill:#000000;fill-opacity:1;stroke:none;font-family:Bitstream Vera Sans" />
  </g>
</svg>
