<?xml version="1.0" encoding="UTF-8" standalone="no"?>
<!-- Created with Inkscape (http://www.inkscape.org/) -->

<svg
   xmlns:dc="http://purl.org/dc/elements/1.1/"
   xmlns:cc="http://creativecommons.org/ns#"
   xmlns:rdf="http://www.w3.org/1999/02/22-rdf-syntax-ns#"
   xmlns:svg="http://www.w3.org/2000/svg"
   xmlns="http://www.w3.org/2000/svg"
   version="1.1"
   width="75"
   height="100"
   id="svg2987">
  <defs
     id="defs2989" />
  <metadata
     id="metadata2992">
    <rdf:RDF>
      <cc:Work
         rdf:about="">
        <dc:format>image/svg+xml</dc:format>
        <dc:type
           rdf:resource="http://purl.org/dc/dcmitype/StillImage" />
        <dc:title></dc:title>
      </cc:Work>
    </rdf:RDF>
  </metadata>
  <g
     transform="translate(0,-952.36218)"
     id="layer1">
    <path
       d="m 37.5,952.36218 c -1.34046,5.63683 -3.40279,10.69946 -6.18699,15.1357 -2.78407,4.4364 -7.74226,9.90786 -14.88313,16.4579 C 9.28912,990.50595 4.76062,995.52507 2.85289,999.02189 0.94533,1002.5188 7e-5,1006.0679 0,1009.6691 c 9e-5,5.0104 1.64993,9.1858 4.94959,12.5261 3.29981,3.3403 7.32133,5.0104 12.06462,5.0104 8.49119,0 15.05874,-6.2762 19.38588,-13.1176 -0.32881,7.4805 -1.54642,13.4693 -3.67781,17.9541 -2.29429,4.8277 -5.80732,8.8228 -10.55225,12.0041 -3.19503,2.1422 -8.95386,4.0188 -17.25482,5.6368 l -0.61869,2.6792 33.16911,0 33.20348,0 -0.6187,-2.6792 c -8.30097,-1.618 -14.0598,-3.4946 -17.25481,-5.6368 -4.74494,-3.1813 -8.25796,-7.1764 -10.55225,-12.0041 -2.12822,-4.4781 -3.34683,-10.4544 -3.67781,-17.9193 4.32742,6.8319 10.93919,13.0828 19.42025,13.0828 4.7433,0 8.76481,-1.6701 12.06462,-5.0104 3.29962,-3.3403 4.9495,-7.5157 4.94959,-12.5261 -1e-4,-3.6012 -0.94533,-7.1503 -2.85289,-10.64721 -1.90775,-3.49682 -6.43624,-8.51594 -13.57699,-15.06611 -7.14086,-6.55004 -12.09905,-12.0215 -14.88313,-16.4579 -2.78419,-4.43624 -4.84652,-9.49887 -6.18699,-15.1357 z"
       id="path1939"
       style="font-size:144px;font-style:normal;font-weight:normal;fill:#000000;fill-opacity:1;stroke:none;font-family:Bitstream Vera Sans" />
  </g>
</svg>
